HIERARCHY
ROOT root
{
	OFFSET 0.000000 0.000000 0.000000
	CHANNELS 6 Xposition Yposition Zposition Zrotation Yrotation Xrotation
	JOINT lhip
	{
		OFFSET 0.058581 -0.082280 -0.017664
		CHANNELS 3 Zrotation Yrotation Xrotation
		JOINT lknee
		{
			OFFSET 0.043451 -0.386469 0.008037
			CHANNELS 3 Zrotation Yrotation Xrotation
			JOINT lankle
			{
				OFFSET -0.014790 -0.426874 -0.037428
				CHANNELS 3 Zrotation Yrotation Xrotation
				JOINT ltoe
				{
					OFFSET 0.041054 -0.060286 0.122042
					CHANNELS 3 Zrotation Yrotation Xrotation
					End Site
					{
						OFFSET 0.000000 0.000000 0.000000
					}
				}
			}
		}
	}
	JOINT rhip
	{
		OFFSET -0.060310 -0.090513 -0.013543
		CHANNELS 3 Zrotation Yrotation Xrotation
		JOINT rknee
		{
			OFFSET -0.043257 -0.383688 -0.004843
			CHANNELS 3 Zrotation Yrotation Xrotation
			JOINT rankle
			{
				OFFSET 0.019056 -0.420046 -0.034562
				CHANNELS 3 Zrotation Yrotation Xrotation
				JOINT rtoe
				{
					OFFSET -0.034840 -0.062106 0.130323
					CHANNELS 3 Zrotation Yrotation Xrotation
					End Site
					{
						OFFSET 0.000000 0.000000 0.000000
					}
				}
			}
		}
	}
	JOINT lowerback
	{
		OFFSET 0.004439 0.124404 -0.038385
		CHANNELS 3 Zrotation Yrotation Xrotation
		JOINT upperback
		{
			OFFSET 0.004488 0.137956 0.026820
			CHANNELS 3 Zrotation Yrotation Xrotation
			JOINT chest
			{
				OFFSET -0.002265 0.056032 0.002855
				CHANNELS 3 Zrotation Yrotation Xrotation
				JOINT lowerneck
				{
					OFFSET -0.013390 0.211636 -0.033468
					CHANNELS 3 Zrotation Yrotation Xrotation
					JOINT upperneck
					{
						OFFSET 0.010113 0.088937 0.050410
						CHANNELS 3 Zrotation Yrotation Xrotation
						End Site
						{
							OFFSET 0.000000 0.000000 0.000000
						}
					}
				}
				JOINT lclavicle
				{
					OFFSET 0.071702 0.114000 -0.018898
					CHANNELS 3 Zrotation Yrotation Xrotation
					JOINT lshoulder
					{
						OFFSET 0.122921 0.045205 -0.019046
						CHANNELS 3 Zrotation Yrotation Xrotation
						JOINT lelbow
						{
							OFFSET 0.255332 -0.015649 -0.022946
							CHANNELS 3 Zrotation Yrotation Xrotation
							JOINT lwrist
							{
								OFFSET 0.265709 0.012698 -0.007375
								CHANNELS 3 Zrotation Yrotation Xrotation
								End Site
								{
									OFFSET 0.000000 0.000000 0.000000
								}
							}
						}
					}
				}
				JOINT rclavicle
				{
					OFFSET -0.082954 0.112472 -0.023707
					CHANNELS 3 Zrotation Yrotation Xrotation
					JOINT rshoulder
					{
						OFFSET -0.113228 0.046853 -0.008472
						CHANNELS 3 Zrotation Yrotation Xrotation
						JOINT relbow
						{
							OFFSET -0.260127 -0.014369 -0.031269
							CHANNELS 3 Zrotation Yrotation Xrotation
							JOINT rwrist
							{
								OFFSET -0.269108 0.006794 -0.006027
								CHANNELS 3 Zrotation Yrotation Xrotation
								End Site
								{
									OFFSET 0.000000 0.000000 0.000000
								}
							}
						}
					}
				}
			}
		}
	}
}
MOTION
Frames: 7
Frame Time: 0.033333
-0.284655 0.274259 1.415659 91.663476 -0.109457 90.465433 6.634154 0.143706 -11.322230 -4.116227 10.341769 20.215308 -10.053723 9.701428 27.080268 0.000000 -0.000000 0.000000 -5.075467 -3.654406 -18.036423 -3.614393 -13.738295 46.417051 9.457924 -3.510545 23.419940 0.000000 -0.000000 0.000000 -2.794745 1.229156 15.377488 1.652736 -1.719396 1.537728 1.140189 -0.115297 -0.683524 -4.206961 -4.547328 18.070485 6.777607 -0.771036 2.701489 -14.439158 -0.389383 5.792305 -57.608983 -9.728728 8.031871 10.941983 -46.769105 -6.048999 5.500381 -10.986833 -28.054585 13.217320 3.344622 4.811720 60.927654 3.102304 11.201720 -15.629862 34.381224 -2.843245 -1.368233 5.890765 -7.233017 
-0.253152 0.273487 1.427075 92.274552 -0.118651 90.719184 6.863636 0.704185 -13.528801 -4.683046 9.708042 15.405846 -11.136053 8.045390 25.152828 0.000000 -0.000000 0.000000 -5.133918 -3.973987 -20.258987 -2.723964 -14.190307 42.293465 10.526648 -3.258236 21.492598 0.000000 -0.000000 0.000000 -2.728064 0.868028 16.398387 1.634875 -2.110285 0.611282 1.197882 -0.661305 -0.480874 -3.899493 -3.879985 17.597310 6.367645 -0.623917 3.171822 -16.539082 0.560172 6.219952 -57.898904 -9.312344 7.937748 10.163341 -42.472411 -6.116924 5.047544 -11.411720 -26.635470 15.360504 2.393266 4.846975 59.906072 4.259894 11.389270 -13.833435 31.612252 -1.614827 -1.652757 6.055376 -5.754298 
-0.219084 0.272721 1.426844 93.200945 -0.095222 90.105144 7.188754 0.955157 -14.784035 -4.677294 9.784418 11.449654 -11.895922 7.156896 24.390935 0.000000 -0.000000 0.000000 -5.412706 -4.115863 -20.070172 -1.739077 -14.979585 35.826326 11.893764 -2.960527 21.303269 0.000000 -0.000000 0.000000 -2.619280 0.700418 17.640252 1.590609 -2.705417 0.408595 1.343672 -1.110379 -0.363303 -3.598416 -3.364234 17.151422 6.464893 -0.710466 3.473859 -17.505320 0.839009 6.990878 -58.674782 -8.855931 7.737979 9.101342 -39.262827 -5.394995 3.969583 -11.830026 -25.702924 16.656240 1.743320 5.387337 59.869742 4.832948 11.156754 -13.742008 30.462112 -1.974676 -1.782365 6.030282 -4.940607 
-0.183426 0.272361 1.414418 93.783753 0.040533 89.552661 7.526214 1.534878 -15.987469 -4.362956 10.127496 8.508605 -12.156478 6.797024 25.119422 0.000000 -0.000000 0.000000 -5.284067 -4.431795 -19.358046 -0.864694 -14.692359 28.462172 12.563778 -2.691102 22.286449 0.000000 -0.000000 0.000000 -2.446927 0.763246 18.034432 1.562567 -3.137648 0.701634 1.523937 -1.420896 -0.385870 -3.667311 -3.150077 17.235763 6.782495 -0.529766 3.723324 -17.882751 1.053549 7.942150 -59.539866 -8.133776 7.576374 7.902547 -37.631371 -3.766722 3.061233 -11.939305 -25.355002 17.081805 1.398249 6.241219 60.328301 4.935194 10.938617 -13.852498 30.126545 -2.379590 -1.884224 5.965230 -4.994013 
-0.146878 0.272554 1.390513 93.852985 0.105085 89.474458 7.609244 2.174383 -17.245718 -4.328645 9.868735 6.176552 -12.443568 6.370093 26.548698 0.000000 -0.000000 0.000000 -4.984614 -5.213414 -19.042743 0.082548 -13.542853 21.286966 12.871423 -2.229866 22.940188 0.000000 -0.000000 0.000000 -2.281675 0.990345 17.336130 1.479491 -3.349866 0.854837 1.612365 -1.522775 -0.302005 -4.055074 -3.179441 18.061453 7.154236 -0.121979 3.722232 -17.658417 1.962770 8.532913 -60.475467 -7.165452 7.653084 6.523440 -37.653904 -1.527664 2.612889 -11.671900 -25.494972 16.713672 0.744606 6.830056 60.989988 4.808581 10.911232 -13.246196 30.233032 -1.507243 -1.785484 5.913552 -4.993908 
-0.107466 0.273286 1.355953 93.593927 0.038163 88.959405 7.642418 2.180167 -17.267599 -4.603107 10.011003 4.215500 -13.256945 5.746464 26.504546 0.000000 -0.000000 0.000000 -5.051500 -6.062889 -17.898760 1.104158 -13.653798 14.761103 13.995938 -1.963727 23.766639 0.000000 -0.000000 0.000000 -2.108485 1.394084 16.295290 1.343199 -3.399825 1.191169 1.570900 -1.458956 -0.254156 -4.328783 -3.196423 19.560993 7.373422 -0.017213 3.351511 -16.900271 3.376966 9.097428 -61.320937 -6.172605 7.755992 5.362443 -39.116219 0.374340 2.096914 -11.812624 -26.217931 15.984334 -0.363445 7.205639 61.570470 4.598194 10.911654 -12.462908 30.891406 -0.294403 -1.643225 5.867991 -4.903724 
-0.064194 0.274135 1.310435 93.066472 0.087152 87.759059 7.803168 1.797978 -15.668767 -4.836650 10.856254 2.326890 -13.927610 6.033864 27.789487 0.000000 -0.000000 0.000000 -5.205805 -6.379472 -15.755821 2.126306 -14.712435 9.524930 15.128613 -2.163670 25.823297 0.000000 -0.000000 0.000000 -1.680241 1.666208 14.977846 1.181243 -3.130971 1.881224 1.401500 -1.316679 -0.181591 -4.715184 -3.210635 21.641623 7.441309 0.160028 2.836359 -15.626085 5.010274 9.713798 -62.010231 -5.187693 7.775484 4.697012 -41.949527 1.772974 1.327686 -11.831370 -27.431728 14.831531 -1.522759 7.416063 62.348305 4.375069 10.957896 -12.136719 31.880237 0.054375 -1.744550 5.732334 -4.981949 
